<?xml version="1.0" encoding="utf-8"?>
<!-- Generator: Adobe Illustrator 19.0.1, SVG Export Plug-In . SVG Version: 6.00 Build 0)  -->
<svg version="1.1" xmlns="http://www.w3.org/2000/svg" xmlns:xlink="http://www.w3.org/1999/xlink" x="0px" y="0px"
	 viewBox="0 0 100 100" style="enable-background:new 0 0 100 100;" xml:space="preserve">
<style type="text/css">
	.st0{fill:#A03C3C;}
	.st1{fill:#466432;}
	.st2{fill:#A09632;}
	.st3{fill:#785082;}
	.st4{clip-path:url(#SVGID_2_);fill:#FFFFFF;}
	.st5{clip-path:url(#SVGID_2_);fill:#5C2B03;}
	.st6{clip-path:url(#SVGID_2_);fill:#007542;}
	.st7{fill:#007542;}
</style>
<symbol id="tomato-bboy" viewBox="0 26 100 48">
	<g>
		<path class="st0" d="M54.3,85.9c-11.7,2.3-23.7-3.6-31.5-12.2c-9-10-11.2-22.7-7.6-35.6c0.8-2.9,2-5.6,4-7.9
			c0.7-0.9,1.4-1.8,2.3-2.5c1.6-1.3,3.2-2.6,5.2-3.3c1.8-0.7,3.5-1.3,5.4-2c0.1,1.2,0.3,2.2,1.1,2.9c0.8,0.6,1.6,1.2,2.5,1.9
			c-2.1,3.8-6,5.3-9.8,6.9c0,0.1,0,0.3,0.1,0.5c0,0.2,0.1,0.3,0.2,0.4c1.2,2.4,3.3,3.8,5.7,4.8c2,0.9,4.1,0.8,6.3,0.9
			c2.3,0.1,4.3-0.7,6.3-1.7c0.3-0.1,0.5-0.3,0.9-0.5c1.5,5.5,3.8,10.1,9.9,11.5c1.5-1.2,2.2-2.1,2.6-3.1c0.8-2.5,1.3-5,1.3-7.7
			c0-0.6,0.1-1.2,0.2-1.8c3.4,2.9,7.1,3.2,11,1.4c2.7-1.3,3.6-4,4.4-6.8c-1.5,0.4-2.7-0.1-3.9-0.6c-1.4-0.7-2.7-1.5-4.1-2.3
			c-0.1-0.1-0.1-0.2-0.2-0.4c1.4,0,2.4-0.8,3.5-1.4c0.9-0.5,1.6-1.3,1.8-2.4c0.1-0.4,0.4-0.4,0.7-0.2c1.4,0.7,2.8,1.3,4.2,2
			c0.9,0.5,1.9,1.1,2.6,1.9c8.8,8.4,8,23.5,4.3,34.1C79.1,75.8,67.7,83.3,54.3,85.9z"/>
		<path class="st0" d="M57,13.7c0.5,0.3,0.9,0.5,1.5,0.8c-3.2,2.9-4.8,6.5-5.5,10.8c0.6-0.4,1.1-0.8,1.6-1.2c2.2-1.3,4.5-2,7.1-1.6
			c1.3,0.2,2.5,0.3,3.8,0.4c1.4,0.1,2.7-0.2,4-0.8c0.2-0.1,0.3-0.1,0.6-0.2c-1,2.2-2.1,4.2-4,5.6c-0.9,0.6-1.9,0.9-2.9,0.9
			c-0.9,0-1.8,0-2.5,0c0.9,0.6,2,1.2,3,1.9c0.8,0.6,1.6,1.4,2.3,2.2c1.3,1.3,2.9,2.1,4.7,2.6c0,0.1,0,0.3-0.1,0.3
			c-1.5,0.8-3,1.5-4.8,1.6c-2.4,0.2-4.5-0.7-6.5-1.8c-1.8-1-3.3-2.4-4.7-3.9c-0.6-0.6-1.1-1.3-1.8-1.9c0.3,0.8,0.6,1.6,0.9,2.3
			c0.8,2,1.3,4.1,1.5,6.2c0.3,2.7-0.3,5.2-0.9,7.7c-0.1,0.2-0.1,0.6-0.6,0.3c-2-1.3-3.6-3-4.7-5.1c-0.7-1.3-1-2.8-1.3-4.3
			c-0.3-1.9,0-3.7,0.3-5.6c-0.6,0.8-1.1,1.6-1.7,2.3c-1.6,2.1-3.8,3.4-6.3,3.9c-3.1,0.7-6.1-0.1-9-1.3c-0.1,0-0.1-0.1-0.2-0.2
			c0.2-0.1,0.3-0.2,0.4-0.2c2.2-0.5,3.9-1.9,5.3-3.7c1.3-1.7,2.7-3.4,4.8-4.4c1.4-0.7,3-0.9,4.5-1c-0.8-0.1-1.7-0.3-2.5-0.4
			c-2.2-0.3-4.4-0.6-6.4-1.6c-2-1.1-3.3-2.8-3.7-5.1c-0.1-0.9-0.2-1.9-0.4-2.8c0.1,0,0.2,0,0.3-0.1c0.1,0.2,0.2,0.3,0.2,0.5
			c0.6,1.3,1.5,2.3,2.9,2.7c0.5,0.1,1.1,0.2,1.6,0.2c1.7,0.2,3.3,0.2,4.9,0.6c1,0.2,2,0.9,2.9,1.5c1,0.7,1.8,1.5,2.5,2.1
			c0.7-1.3,1.4-2.9,2.3-4.5c1.2-1.9,2.6-3.7,3.9-5.6c0.1-0.2,0.4-0.3,0.6-0.5C55.9,13.7,56.5,13.7,57,13.7z"/>
	</g>
</symbol>
<symbol id="tomato-bbush" viewBox="0 26 100 48">
	<g>
		<path class="st0" d="M54.3,85.9c-11.7,2.3-23.7-3.6-31.5-12.2c-9-10-11.2-22.7-7.6-35.6c0.8-2.9,2-5.6,4-7.9
			c0.7-0.9,1.4-1.8,2.3-2.5c1.6-1.3,3.2-2.6,5.2-3.3c1.8-0.7,3.5-1.3,5.4-2c0.1,1.2,0.3,2.2,1.1,2.9c0.8,0.6,1.6,1.2,2.5,1.9
			c-2.1,3.8-6,5.3-9.8,6.9c0,0.1,0,0.3,0.1,0.5c0,0.2,0.1,0.3,0.2,0.4c1.2,2.4,3.3,3.8,5.7,4.8c2,0.9,4.1,0.8,6.3,0.9
			c2.3,0.1,4.3-0.7,6.3-1.7c0.3-0.1,0.5-0.3,0.9-0.5c1.5,5.5,3.8,10.1,9.9,11.5c1.5-1.2,2.2-2.1,2.6-3.1c0.8-2.5,1.3-5,1.3-7.7
			c0-0.6,0.1-1.2,0.2-1.8c3.4,2.9,7.1,3.2,11,1.4c2.7-1.3,3.6-4,4.4-6.8c-1.5,0.4-2.7-0.1-3.9-0.6c-1.4-0.7-2.7-1.5-4.1-2.3
			c-0.1-0.1-0.1-0.2-0.2-0.4c1.4,0,2.4-0.8,3.5-1.4c0.9-0.5,1.6-1.3,1.8-2.4c0.1-0.4,0.4-0.4,0.7-0.2c1.4,0.7,2.8,1.3,4.2,2
			c0.9,0.5,1.9,1.1,2.6,1.9c8.8,8.4,8,23.5,4.3,34.1C79.1,75.8,67.7,83.3,54.3,85.9z"/>
		<path class="st0" d="M57,13.7c0.5,0.3,0.9,0.5,1.5,0.8c-3.2,2.9-4.8,6.5-5.5,10.8c0.6-0.4,1.1-0.8,1.6-1.2c2.2-1.3,4.5-2,7.1-1.6
			c1.3,0.2,2.5,0.3,3.8,0.4c1.4,0.1,2.7-0.2,4-0.8c0.2-0.1,0.3-0.1,0.6-0.2c-1,2.2-2.1,4.2-4,5.6c-0.9,0.6-1.9,0.9-2.9,0.9
			c-0.9,0-1.8,0-2.5,0c0.9,0.6,2,1.2,3,1.9c0.8,0.6,1.6,1.4,2.3,2.2c1.3,1.3,2.9,2.1,4.7,2.6c0,0.1,0,0.3-0.1,0.3
			c-1.5,0.8-3,1.5-4.8,1.6c-2.4,0.2-4.5-0.7-6.5-1.8c-1.8-1-3.3-2.4-4.7-3.9c-0.6-0.6-1.1-1.3-1.8-1.9c0.3,0.8,0.6,1.6,0.9,2.3
			c0.8,2,1.3,4.1,1.5,6.2c0.3,2.7-0.3,5.2-0.9,7.7c-0.1,0.2-0.1,0.6-0.6,0.3c-2-1.3-3.6-3-4.7-5.1c-0.7-1.3-1-2.8-1.3-4.3
			c-0.3-1.9,0-3.7,0.3-5.6c-0.6,0.8-1.1,1.6-1.7,2.3c-1.6,2.1-3.8,3.4-6.3,3.9c-3.1,0.7-6.1-0.1-9-1.3c-0.1,0-0.1-0.1-0.2-0.2
			c0.2-0.1,0.3-0.2,0.4-0.2c2.2-0.5,3.9-1.9,5.3-3.7c1.3-1.7,2.7-3.4,4.8-4.4c1.4-0.7,3-0.9,4.5-1c-0.8-0.1-1.7-0.3-2.5-0.4
			c-2.2-0.3-4.4-0.6-6.4-1.6c-2-1.1-3.3-2.8-3.7-5.1c-0.1-0.9-0.2-1.9-0.4-2.8c0.1,0,0.2,0,0.3-0.1c0.1,0.2,0.2,0.3,0.2,0.5
			c0.6,1.3,1.5,2.3,2.9,2.7c0.5,0.1,1.1,0.2,1.6,0.2c1.7,0.2,3.3,0.2,4.9,0.6c1,0.2,2,0.9,2.9,1.5c1,0.7,1.8,1.5,2.5,2.1
			c0.7-1.3,1.4-2.9,2.3-4.5c1.2-1.9,2.6-3.7,3.9-5.6c0.1-0.2,0.4-0.3,0.6-0.5C55.9,13.7,56.5,13.7,57,13.7z"/>
	</g>
</symbol>
<symbol id="tomato-hcr" viewBox="0 26 100 48">
	<g>
		<path class="st0" d="M76.8,32.5c-0.7-0.7-1.5-1.2-2.4-1.7c-0.2-0.1-0.4-0.2-0.7-0.3c-0.8,1.1-1.8,2.2-3,3.1
			c-0.2,0.2-0.5,0.3-0.8,0.5c0.1,0.1,0.2,0.2,0.3,0.3c0.2,0.2,0.4,0.4,0.6,0.6c1.2,1.1,2.6,1.9,4.3,2.3c0.8,0.2,1.5,0.8,1.9,1.5
			c0.4,0.7,0.4,1.5,0.2,2.2c-0.2,1-0.8,1.7-1.6,2.2c-1.8,1-4.1,2.1-6.9,2.3c-0.3,0-0.6,0-0.9,0c-3.5,0-6.4-1.4-8.5-2.6
			c-0.1-0.1-0.3-0.2-0.4-0.2c0,0.2,0.1,0.5,0.1,0.7c0.4,3.7-0.4,7.1-1.1,10.2c-0.7,2.7-2.8,2.8-3.3,2.8c-0.7,0-1.3-0.2-1.9-0.6
			c-2.9-1.8-5.1-4.2-6.6-7.2c-0.8-1.5-1.3-3.2-1.7-5.2c-1.6,1.1-3.5,1.9-5.6,2.3c-1.1,0.3-2.3,0.4-3.5,0.4c-3.4,0-6.4-1-8.9-2
			c-0.7-0.3-1.1-0.7-1.2-0.8c-0.7-0.7-1-1.6-0.9-2.6c0.1-0.9,0.7-1.8,1.5-2.2l0.1,0c0.2-0.1,0.6-0.4,1.2-0.5
			c1.7-0.4,3.2-1.5,4.6-3.3c0.9-1.2,1.9-2.5,3.1-3.6c-0.5-0.2-1.1-0.5-1.6-0.8c-1-0.5-1.9-1.2-2.7-2c-0.5,0.2-1.1,0.4-1.6,0.6
			c-1.8,0.7-3.3,1.8-4.7,3c-0.8,0.6-1.4,1.5-2.1,2.3c-1.8,2.1-2.9,4.6-3.7,7.2c-3.3,11.7-1.3,23.3,6.9,32.4C32.3,81.7,43.3,87,54,85
			c12.1-2.4,22.5-9.2,26.8-21.3C84.2,54,84.8,40.2,76.8,32.5z"/>
		<g>
			<path class="st0" d="M58.1,14.6c0.6,0.3,1.1,0.6,1.8,1c-3.8,3.5-5.7,7.8-6.5,12.8c0.7-0.5,1.3-1,1.9-1.4c2.6-1.6,5.3-2.4,8.4-1.9
				c1.5,0.3,3,0.4,4.5,0.5c1.7,0.2,3.3-0.3,4.8-1c0.2-0.1,0.4-0.1,0.7-0.2c-1.2,2.6-2.4,5-4.8,6.7c-1,0.7-2.2,1.1-3.5,1.1
				c-1.1,0-2.1,0-3,0c1.1,0.7,2.4,1.4,3.5,2.3c1,0.8,1.9,1.7,2.8,2.6c1.6,1.5,3.4,2.5,5.6,3.1c0,0.1-0.1,0.3-0.1,0.4
				c-1.8,1-3.6,1.8-5.7,1.9c-2.9,0.2-5.4-0.8-7.8-2.2c-2.1-1.2-3.9-2.9-5.6-4.6c-0.7-0.7-1.3-1.5-2.1-2.2c0.4,0.9,0.7,1.9,1.1,2.8
				c0.9,2.4,1.5,4.8,1.8,7.4c0.3,3.2-0.3,6.2-1.1,9.2c-0.1,0.3-0.2,0.7-0.7,0.4c-2.4-1.5-4.3-3.5-5.6-6c-0.8-1.6-1.2-3.3-1.5-5.1
				c-0.3-2.2,0.1-4.4,0.4-6.7c-0.7,1-1.3,1.9-2,2.7c-1.9,2.5-4.5,4-7.5,4.7c-3.7,0.8-7.2-0.2-10.6-1.5c-0.1,0-0.1-0.1-0.2-0.2
				c0.2-0.1,0.3-0.2,0.5-0.3c2.7-0.6,4.6-2.2,6.3-4.4c1.6-2.1,3.3-4,5.7-5.2c1.7-0.8,3.5-1.1,5.4-1.1c-1-0.2-2-0.4-3-0.5
				c-2.6-0.3-5.2-0.7-7.6-1.9c-2.4-1.3-3.9-3.3-4.4-6c-0.2-1.1-0.3-2.2-0.4-3.4c0.1,0,0.2-0.1,0.3-0.1c0.1,0.2,0.2,0.4,0.3,0.6
				c0.8,1.5,1.8,2.8,3.5,3.2c0.6,0.2,1.3,0.2,2,0.3c2,0.2,4,0.3,5.9,0.7c1.2,0.3,2.3,1,3.4,1.7c1.1,0.8,2.2,1.8,3,2.5
				c0.8-1.5,1.6-3.5,2.8-5.3c1.4-2.3,3.1-4.5,4.6-6.7c0.2-0.2,0.4-0.4,0.7-0.6C56.8,14.6,57.4,14.6,58.1,14.6z"/>
		</g>
	</g>
</symbol>
<symbol id="tomato-rb" viewBox="0 26 100 48">
	<g>
		<path class="st0" d="M54.3,85.9c-11.7,2.3-23.7-3.6-31.5-12.2c-9-10-11.2-22.7-7.6-35.6c0.8-2.9,2-5.6,4-7.9
			c0.7-0.9,1.4-1.8,2.3-2.5c1.6-1.3,3.2-2.6,5.2-3.3c1.8-0.7,3.5-1.3,5.4-2c0.1,1.2,0.3,2.2,1.1,2.9c0.8,0.6,1.6,1.2,2.5,1.9
			c-2.1,3.8-6,5.3-9.8,6.9c0,0.1,0,0.3,0.1,0.5c0,0.2,0.1,0.3,0.2,0.4c1.2,2.4,3.3,3.8,5.7,4.8c2,0.9,4.1,0.8,6.3,0.9
			c2.3,0.1,4.3-0.7,6.3-1.7c0.3-0.1,0.5-0.3,0.9-0.5c1.5,5.5,3.8,10.1,9.9,11.5c1.5-1.2,2.2-2.1,2.6-3.1c0.8-2.5,1.3-5,1.3-7.7
			c0-0.6,0.1-1.2,0.2-1.8c3.4,2.9,7.1,3.2,11,1.4c2.7-1.3,3.6-4,4.4-6.8c-1.5,0.4-2.7-0.1-3.9-0.6c-1.4-0.7-2.7-1.5-4.1-2.3
			c-0.1-0.1-0.1-0.2-0.2-0.4c1.4,0,2.4-0.8,3.5-1.4c0.9-0.5,1.6-1.3,1.8-2.4c0.1-0.4,0.4-0.4,0.7-0.2c1.4,0.7,2.8,1.3,4.2,2
			c0.9,0.5,1.9,1.1,2.6,1.9c8.8,8.4,8,23.5,4.3,34.1C79.1,75.8,67.7,83.3,54.3,85.9z"/>
		<path class="st0" d="M57,13.7c0.5,0.3,0.9,0.5,1.5,0.8c-3.2,2.9-4.8,6.5-5.5,10.8c0.6-0.4,1.1-0.8,1.6-1.2c2.2-1.3,4.5-2,7.1-1.6
			c1.3,0.2,2.5,0.3,3.8,0.4c1.4,0.1,2.7-0.2,4-0.8c0.2-0.1,0.3-0.1,0.6-0.2c-1,2.2-2.1,4.2-4,5.6c-0.9,0.6-1.9,0.9-2.9,0.9
			c-0.9,0-1.8,0-2.5,0c0.9,0.6,2,1.2,3,1.9c0.8,0.6,1.6,1.4,2.3,2.2c1.3,1.3,2.9,2.1,4.7,2.6c0,0.1,0,0.3-0.1,0.3
			c-1.5,0.8-3,1.5-4.8,1.6c-2.4,0.2-4.5-0.7-6.5-1.8c-1.8-1-3.3-2.4-4.7-3.9c-0.6-0.6-1.1-1.3-1.8-1.9c0.3,0.8,0.6,1.6,0.9,2.3
			c0.8,2,1.3,4.1,1.5,6.2c0.3,2.7-0.3,5.2-0.9,7.7c-0.1,0.2-0.1,0.6-0.6,0.3c-2-1.3-3.6-3-4.7-5.1c-0.7-1.3-1-2.8-1.3-4.3
			c-0.3-1.9,0-3.7,0.3-5.6c-0.6,0.8-1.1,1.6-1.7,2.3c-1.6,2.1-3.8,3.4-6.3,3.9c-3.1,0.7-6.1-0.1-9-1.3c-0.1,0-0.1-0.1-0.2-0.2
			c0.2-0.1,0.3-0.2,0.4-0.2c2.2-0.5,3.9-1.9,5.3-3.7c1.3-1.7,2.7-3.4,4.8-4.4c1.4-0.7,3-0.9,4.5-1c-0.8-0.1-1.7-0.3-2.5-0.4
			c-2.2-0.3-4.4-0.6-6.4-1.6c-2-1.1-3.3-2.8-3.7-5.1c-0.1-0.9-0.2-1.9-0.4-2.8c0.1,0,0.2,0,0.3-0.1c0.1,0.2,0.2,0.3,0.2,0.5
			c0.6,1.3,1.5,2.3,2.9,2.7c0.5,0.1,1.1,0.2,1.6,0.2c1.7,0.2,3.3,0.2,4.9,0.6c1,0.2,2,0.9,2.9,1.5c1,0.7,1.8,1.5,2.5,2.1
			c0.7-1.3,1.4-2.9,2.3-4.5c1.2-1.9,2.6-3.7,3.9-5.6c0.1-0.2,0.4-0.3,0.6-0.5C55.9,13.7,56.5,13.7,57,13.7z"/>
	</g>
</symbol>
<symbol id="tomato-roma" viewBox="0 26 100 48">
	<g>
		<path class="st0" d="M23.2,79.9c5.9,6.2,16.7,7.4,24.3,4.6C62,79.2,72.9,66.7,79.9,53c1.7-3.4,3.2-7.1,3.3-11s-1.1-7.9-4.1-10.4
			c-1.2,1-2.9,1.4-4.4,1.1c0,3.2,1.2,6.4,3.2,8.8c0.3,0.4-4.9,1.2-5.4,1.1c-2.1-0.3-3.7-1.4-5.4-2.5c-1.5-1-2.4-2.4-3.2-4
			c-0.1-0.2-0.2-0.4-0.3-0.7c-3.4,2.8-7,4.6-11.4,2.8c-0.4-1.4-0.5-2.3-0.2-3.1c0.6-2,1.5-3.8,2.6-5.5c0.3-0.4,0.5-0.8,0.7-1.3
			c-3.5,0.3-6-1.2-7.6-4.1c-1.1-2-0.5-4.1,0.3-6.3c0.8,1,1.8,1.2,2.7,1.3c1.2,0.2,2.4,0.3,3.6,0.4c0.1,0,0.2-0.1,0.3-0.1
			c-0.9-0.6-1.2-1.6-1.6-2.5c-0.3-0.7-0.4-1.5-0.1-2.3c0.1-0.3-0.1-0.4-0.4-0.5c-6.9-1.2-13.1,3.5-17.5,8.3
			C24.7,33.8,21.9,48.6,19.3,63.1C18.1,69.2,18.7,75.1,23.2,79.9z"/>
		<path class="st0" d="M67.4,14.5c-0.4-0.1-0.8-0.1-1.3-0.2c0.7,3.3,0.1,6.3-1.4,9.3c-0.2-0.5-0.3-1-0.5-1.5
			c-0.8-1.8-1.9-3.3-3.8-4.2c-0.9-0.4-1.7-0.9-2.6-1.4c-1-0.6-1.6-1.4-2.2-2.3c-0.1-0.1-0.2-0.2-0.3-0.4c-0.3,1.9-0.6,3.6,0,5.4
			c0.3,0.8,0.8,1.4,1.4,1.9c0.6,0.4,1.1,0.8,1.6,1.2c-0.9,0-1.8-0.1-2.8-0.1c-0.8,0-1.6,0.2-2.5,0.3c-1.4,0.2-2.8,0-4.2-0.5
			c0,0.1-0.1,0.2-0.1,0.3c0.6,1.2,1.2,2.3,2.3,3.2c1.5,1.2,3.2,1.6,5,1.8c1.6,0.2,3.2,0,4.7-0.3c0.6-0.1,1.3-0.3,2-0.4
			c-0.6,0.4-1.1,0.7-1.7,1.1c-1.4,0.9-2.7,2-3.8,3.3c-1.4,1.6-2.2,3.4-2.9,5.3c-0.1,0.2-0.2,0.4,0.2,0.5c1.8,0.1,3.6-0.2,5.3-1.1
			c1-0.5,1.9-1.3,2.7-2.1c1-1.1,1.6-2.4,2.3-3.7c0,0.8,0,1.5,0,2.2c0.1,2.1,0.9,3.8,2.2,5.3c1.7,1.9,3.9,2.7,6.2,3.2
			c0,0,0.1,0,0.2,0c-0.1-0.1-0.1-0.3-0.2-0.3c-1.2-1.4-1.6-3-1.7-4.7c0-1.7-0.2-3.4-1-4.9c-0.6-1.1-1.5-1.9-2.4-2.7
			c0.6,0.3,1.2,0.6,1.8,0.9c1.5,0.8,3,1.6,4.8,1.9c1.8,0.2,3.3-0.3,4.6-1.5c0.5-0.5,1-1.1,1.5-1.6c0-0.1-0.1-0.1-0.1-0.2
			c-0.1,0.1-0.2,0.1-0.4,0.2c-1,0.5-2,0.8-3.1,0.4c-0.4-0.2-0.8-0.4-1.1-0.6c-1.1-0.6-2.2-1.4-3.4-1.9c-0.7-0.3-1.6-0.4-2.5-0.4
			c-0.9,0-1.8,0.1-2.6,0.2c0.2-1.1,0.5-2.5,0.5-3.9c0.1-1.8,0.1-3.5,0.1-5.3c0-0.2-0.1-0.4-0.1-0.6C68.1,15,67.8,14.8,67.4,14.5z"/>
	</g>
</symbol>
<symbol id="tomato-sm" viewBox="0 26 100 48">
	<g>
		<path class="st0" d="M76.8,32.5c-0.7-0.7-1.5-1.2-2.4-1.7c-0.2-0.1-0.4-0.2-0.7-0.3c-0.8,1.1-1.8,2.2-3,3.1
			c-0.2,0.2-0.5,0.3-0.8,0.5c0.1,0.1,0.2,0.2,0.3,0.3c0.2,0.2,0.4,0.4,0.6,0.6c1.2,1.1,2.6,1.9,4.3,2.3c0.8,0.2,1.5,0.8,1.9,1.5
			c0.4,0.7,0.4,1.5,0.2,2.2c-0.2,1-0.8,1.7-1.6,2.2c-1.8,1-4.1,2.1-6.9,2.3c-0.3,0-0.6,0-0.9,0c-3.5,0-6.4-1.4-8.5-2.6
			c-0.1-0.1-0.3-0.2-0.4-0.2c0,0.2,0.1,0.5,0.1,0.7c0.4,3.7-0.4,7.1-1.1,10.2c-0.7,2.7-2.8,2.8-3.3,2.8c-0.7,0-1.3-0.2-1.9-0.6
			c-2.9-1.8-5.1-4.2-6.6-7.2c-0.8-1.5-1.3-3.2-1.7-5.2c-1.6,1.1-3.5,1.9-5.6,2.3c-1.1,0.3-2.3,0.4-3.5,0.4c-3.4,0-6.4-1-8.9-2
			c-0.7-0.3-1.1-0.7-1.2-0.8c-0.7-0.7-1-1.6-0.9-2.6c0.1-0.9,0.7-1.8,1.5-2.2l0.1,0c0.2-0.1,0.6-0.4,1.2-0.5
			c1.7-0.4,3.2-1.5,4.6-3.3c0.9-1.2,1.9-2.5,3.1-3.6c-0.5-0.2-1.1-0.5-1.6-0.8c-1-0.5-1.9-1.2-2.7-2c-0.5,0.2-1.1,0.4-1.6,0.6
			c-1.8,0.7-3.3,1.8-4.7,3c-0.8,0.6-1.4,1.5-2.1,2.3c-1.8,2.1-2.9,4.6-3.7,7.2c-3.3,11.7-1.3,23.3,6.9,32.4C32.3,81.7,43.3,87,54,85
			c12.1-2.4,22.5-9.2,26.8-21.3C84.2,54,84.8,40.2,76.8,32.5z"/>
		<g>
			<path class="st0" d="M58.1,14.6c0.6,0.3,1.1,0.6,1.8,1c-3.8,3.5-5.7,7.8-6.5,12.8c0.7-0.5,1.3-1,1.9-1.4c2.6-1.6,5.3-2.4,8.4-1.9
				c1.5,0.3,3,0.4,4.5,0.5c1.7,0.2,3.3-0.3,4.8-1c0.2-0.1,0.4-0.1,0.7-0.2c-1.2,2.6-2.4,5-4.8,6.7c-1,0.7-2.2,1.1-3.5,1.1
				c-1.1,0-2.1,0-3,0c1.1,0.7,2.4,1.4,3.5,2.3c1,0.8,1.9,1.7,2.8,2.6c1.6,1.5,3.4,2.5,5.6,3.1c0,0.1-0.1,0.3-0.1,0.4
				c-1.8,1-3.6,1.8-5.7,1.9c-2.9,0.2-5.4-0.8-7.8-2.2c-2.1-1.2-3.9-2.9-5.6-4.6c-0.7-0.7-1.3-1.5-2.1-2.2c0.4,0.9,0.7,1.9,1.1,2.8
				c0.9,2.4,1.5,4.8,1.8,7.4c0.3,3.2-0.3,6.2-1.1,9.2c-0.1,0.3-0.2,0.7-0.7,0.4c-2.4-1.5-4.3-3.5-5.6-6c-0.8-1.6-1.2-3.3-1.5-5.1
				c-0.3-2.2,0.1-4.4,0.4-6.7c-0.7,1-1.3,1.9-2,2.7c-1.9,2.5-4.5,4-7.5,4.7c-3.7,0.8-7.2-0.2-10.6-1.5c-0.1,0-0.1-0.1-0.2-0.2
				c0.2-0.1,0.3-0.2,0.5-0.3c2.7-0.6,4.6-2.2,6.3-4.4c1.6-2.1,3.3-4,5.7-5.2c1.7-0.8,3.5-1.1,5.4-1.1c-1-0.2-2-0.4-3-0.5
				c-2.6-0.3-5.2-0.7-7.6-1.9c-2.4-1.3-3.9-3.3-4.4-6c-0.2-1.1-0.3-2.2-0.4-3.4c0.1,0,0.2-0.1,0.3-0.1c0.1,0.2,0.2,0.4,0.3,0.6
				c0.8,1.5,1.8,2.8,3.5,3.2c0.6,0.2,1.3,0.2,2,0.3c2,0.2,4,0.3,5.9,0.7c1.2,0.3,2.3,1,3.4,1.7c1.1,0.8,2.2,1.8,3,2.5
				c0.8-1.5,1.6-3.5,2.8-5.3c1.4-2.3,3.1-4.5,4.6-6.7c0.2-0.2,0.4-0.4,0.7-0.6C56.8,14.6,57.4,14.6,58.1,14.6z"/>
		</g>
	</g>
</symbol>
<symbol id="pepper-bell-green" viewBox="0 26 100 48">
	<g>
		<path class="st1" d="M64.2,37.7c0.3-3-0.9-5.6-2.4-8.2c1.1-0.3,2.2-0.7,3.3-0.8c4.8-0.7,9.2,1.8,11.2,6.2c1.4,3,1.9,6.1,2.1,9.4
			c0.3,4.9,0.4,9.9,0.1,14.9c-0.4,6.3-1,12.6-2.8,18.8c-0.8,2.6-2,5-3.7,7.1c-1.9,2.4-4.4,3.8-7.6,3.6c-0.7,0-1.4,0-2.2,0
			c0.7-2.5,1.8-4.9,1.4-7.6c-0.8,1.7-1.5,3.4-2.3,5c-1.4,2.8-3.5,4.8-6.5,5.8c-4.4,1.5-9.1,0-11.9-3.9c-1.5-2-2.6-4.3-3.9-6.5
			c-0.1-0.2-0.3-0.5-0.5-0.7c-0.3,2.7,1.1,4.9,1.8,7.3c-3.9,0.5-7.3-0.2-10-3.2c-2-2.3-3.1-5.1-3.8-8c-1.9-8-3.4-16.1-4.4-24.3
			c-0.3-2.3-0.7-4.7-0.9-7c-0.3-3-0.1-6,0.8-8.9c1.4-4.5,4.6-7,9.2-7.9c2.8-0.5,5.6-0.3,8.5,0.2c-1.7,2.7-3.2,5.3-3.4,8.6
			c0.1-0.2,0.2-0.4,0.4-0.6c1.3-1.9,2.3-4,3.8-5.8c5.9-6.8,17.3-5.4,21.5,2.6C62.9,34.9,63.5,36.3,64.2,37.7z"/>
		<path class="st1" d="M60.8,8.9c-0.5,1.6-0.9,3.1-1.3,4.7c-0.9-0.2-1.7-0.3-2.6-0.5c-2.6-0.4-4,0.4-4.9,2.9
			c-0.7,1.9-0.6,3.8,0.5,5.5c0.5,0.8,0.9,1.7,1.5,2.7c-2.9,0.2-5.7,0.3-8.6,0.5c0.2-0.3,0.3-0.6,0.5-0.8c1.4-1.8,2.1-3.9,1.8-6.2
			c-0.3-2.1,0.2-4.1,0.9-6c0.7-1.8,2-3.1,3.9-3.6C55.2,7.4,58,7.8,60.8,8.9z"/>
	</g>
</symbol>
<symbol id="pepper-banana-hot" viewBox="0 26 100 48">
	<path class="st2" d="M10.6,81.1c0.6-0.9,1.5-1.2,2.4-1.2c3-0.1,6-0.2,9-0.3c5.1-0.2,10.1-0.7,15-2.4c4.8-1.7,9.3-3.9,13.5-6.9
		c7.2-5.1,11.5-12,13.7-20.5c0.7-2.6,1.2-5.3,1.9-7.9c0.9-3.8,4-6.2,7.8-6.6c2.3-0.2,4.3-1.2,6.2-2.6c0.3-0.2,0.6-0.6,0.7-1
		c1.8-4.7,2.4-9.5,0.6-14.3c-0.4-1.1-1.1-2.1-1.7-3.1c-0.3-0.5-0.8-0.9-1.3-1.2c-1.3-0.8-1.4-1.5-0.3-2.5c0.3,0,0.6,0,0.9,0
		c2,1,3.3,2.7,4.2,4.7c0.5,1.1,0.9,2.2,1.2,3.3c1,4.3,0.6,8.6-0.8,12.8c-0.1,0.4-0.3,0.8-0.2,1.1c0.6,2.5,1.9,4.7,3.6,6.5
		c1,1.1,1.8,2.3,2.1,3.8c0.2,0.7,0.3,1.3,0.4,2c0,1,0,2.1,0,3.1c-0.1,0.8-0.2,1.6-0.4,2.4c-1,5.4-3.2,10.4-6.2,15
		c-5.8,9-13.5,15.9-23.5,20c-5.8,2.4-11.8,3.5-18,3.9c-1.5,0.1-2.9,0.2-4.4,0.3c-2.5,0-4.9,0-7.4,0c-1.4-0.2-2.8-0.4-4.2-0.6
		c-4-0.7-8-1.8-11.6-3.7c-1.3-0.7-2.5-1.5-3.1-2.9C10.6,81.8,10.6,81.5,10.6,81.1z"/>
</symbol>
<symbol id="pepper-jalapeno" viewBox="0 26 100 48">
	<path class="st1" d="M10.6,81.1c0.6-0.9,1.5-1.2,2.4-1.2c3-0.1,6-0.2,9-0.3c5.1-0.2,10.1-0.7,15-2.4c4.8-1.7,9.3-3.9,13.5-6.9
		c7.2-5.1,11.5-12,13.7-20.5c0.7-2.6,1.2-5.3,1.9-7.9c0.9-3.8,4-6.2,7.8-6.6c2.3-0.2,4.3-1.2,6.2-2.6c0.3-0.2,0.6-0.6,0.7-1
		c1.8-4.7,2.4-9.5,0.6-14.3c-0.4-1.1-1.1-2.1-1.7-3.1c-0.3-0.5-0.8-0.9-1.3-1.2c-1.3-0.8-1.4-1.5-0.3-2.5c0.3,0,0.6,0,0.9,0
		c2,1,3.3,2.7,4.2,4.7c0.5,1.1,0.9,2.2,1.2,3.3c1,4.3,0.6,8.6-0.8,12.8c-0.1,0.4-0.3,0.8-0.2,1.1c0.6,2.5,1.9,4.7,3.6,6.5
		c1,1.1,1.8,2.3,2.1,3.8c0.2,0.7,0.3,1.3,0.4,2c0,1,0,2.1,0,3.1c-0.1,0.8-0.2,1.6-0.4,2.4c-1,5.4-3.2,10.4-6.2,15
		c-5.8,9-13.5,15.9-23.5,20c-5.8,2.4-11.8,3.5-18,3.9c-1.5,0.1-2.9,0.2-4.4,0.3c-2.5,0-4.9,0-7.4,0c-1.4-0.2-2.8-0.4-4.2-0.6
		c-4-0.7-8-1.8-11.6-3.7c-1.3-0.7-2.5-1.5-3.1-2.9C10.6,81.8,10.6,81.5,10.6,81.1z"/>
</symbol>
<symbol id="pepper-poblano" viewBox="0 26 100 48">
	<path class="st1" d="M10.6,81.1c0.6-0.9,1.5-1.2,2.4-1.2c3-0.1,6-0.2,9-0.3c5.1-0.2,10.1-0.7,15-2.4c4.8-1.7,9.3-3.9,13.5-6.9
		c7.2-5.1,11.5-12,13.7-20.5c0.7-2.6,1.2-5.3,1.9-7.9c0.9-3.8,4-6.2,7.8-6.6c2.3-0.2,4.3-1.2,6.2-2.6c0.3-0.2,0.6-0.6,0.7-1
		c1.8-4.7,2.4-9.5,0.6-14.3c-0.4-1.1-1.1-2.1-1.7-3.1c-0.3-0.5-0.8-0.9-1.3-1.2c-1.3-0.8-1.4-1.5-0.3-2.5c0.3,0,0.6,0,0.9,0
		c2,1,3.3,2.7,4.2,4.7c0.5,1.1,0.9,2.2,1.2,3.3c1,4.3,0.6,8.6-0.8,12.8c-0.1,0.4-0.3,0.8-0.2,1.1c0.6,2.5,1.9,4.7,3.6,6.5
		c1,1.1,1.8,2.3,2.1,3.8c0.2,0.7,0.3,1.3,0.4,2c0,1,0,2.1,0,3.1c-0.1,0.8-0.2,1.6-0.4,2.4c-1,5.4-3.2,10.4-6.2,15
		c-5.8,9-13.5,15.9-23.5,20c-5.8,2.4-11.8,3.5-18,3.9c-1.5,0.1-2.9,0.2-4.4,0.3c-2.5,0-4.9,0-7.4,0c-1.4-0.2-2.8-0.4-4.2-0.6
		c-4-0.7-8-1.8-11.6-3.7c-1.3-0.7-2.5-1.5-3.1-2.9C10.6,81.8,10.6,81.5,10.6,81.1z"/>
</symbol>
<symbol id="pepper-bell-red" viewBox="0 26 100 48">
	<g>
		<path class="st0" d="M64.2,37.7c0.3-3-0.9-5.6-2.4-8.2c1.1-0.3,2.2-0.7,3.3-0.8c4.8-0.7,9.2,1.8,11.2,6.2c1.4,3,1.9,6.1,2.1,9.4
			c0.3,4.9,0.4,9.9,0.1,14.9c-0.4,6.3-1,12.6-2.8,18.8c-0.8,2.6-2,5-3.7,7.1c-1.9,2.4-4.4,3.8-7.6,3.6c-0.7,0-1.4,0-2.2,0
			c0.7-2.5,1.8-4.9,1.4-7.6c-0.8,1.7-1.5,3.4-2.3,5c-1.4,2.8-3.5,4.8-6.5,5.8c-4.4,1.5-9.1,0-11.9-3.9c-1.5-2-2.6-4.3-3.9-6.5
			c-0.1-0.2-0.3-0.5-0.5-0.7c-0.3,2.7,1.1,4.9,1.8,7.3c-3.9,0.5-7.3-0.2-10-3.2c-2-2.3-3.1-5.1-3.8-8c-1.9-8-3.4-16.1-4.4-24.3
			c-0.3-2.3-0.7-4.7-0.9-7c-0.3-3-0.1-6,0.8-8.9c1.4-4.5,4.6-7,9.2-7.9c2.8-0.5,5.6-0.3,8.5,0.2c-1.7,2.7-3.2,5.3-3.4,8.6
			c0.1-0.2,0.2-0.4,0.4-0.6c1.3-1.9,2.3-4,3.8-5.8c5.9-6.8,17.3-5.4,21.5,2.6C62.9,34.9,63.5,36.3,64.2,37.7z"/>
		<path class="st0" d="M60.8,8.9c-0.5,1.6-0.9,3.1-1.3,4.7c-0.9-0.2-1.7-0.3-2.6-0.5c-2.6-0.4-4,0.4-4.9,2.9
			c-0.7,1.9-0.6,3.8,0.5,5.5c0.5,0.8,0.9,1.7,1.5,2.7c-2.9,0.2-5.7,0.3-8.6,0.5c0.2-0.3,0.3-0.6,0.5-0.8c1.4-1.8,2.1-3.9,1.8-6.2
			c-0.3-2.1,0.2-4.1,0.9-6c0.7-1.8,2-3.1,3.9-3.6C55.2,7.4,58,7.8,60.8,8.9z"/>
	</g>
</symbol>
<symbol id="pepper-serrano" viewBox="0 26 100 48">
	<path class="st1" d="M10.6,81.1c0.6-0.9,1.5-1.2,2.4-1.2c3-0.1,6-0.2,9-0.3c5.1-0.2,10.1-0.7,15-2.4c4.8-1.7,9.3-3.9,13.5-6.9
		c7.2-5.1,11.5-12,13.7-20.5c0.7-2.6,1.2-5.3,1.9-7.9c0.9-3.8,4-6.2,7.8-6.6c2.3-0.2,4.3-1.2,6.2-2.6c0.3-0.2,0.6-0.6,0.7-1
		c1.8-4.7,2.4-9.5,0.6-14.3c-0.4-1.1-1.1-2.1-1.7-3.1c-0.3-0.5-0.8-0.9-1.3-1.2c-1.3-0.8-1.4-1.5-0.3-2.5c0.3,0,0.6,0,0.9,0
		c2,1,3.3,2.7,4.2,4.7c0.5,1.1,0.9,2.2,1.2,3.3c1,4.3,0.6,8.6-0.8,12.8c-0.1,0.4-0.3,0.8-0.2,1.1c0.6,2.5,1.9,4.7,3.6,6.5
		c1,1.1,1.8,2.3,2.1,3.8c0.2,0.7,0.3,1.3,0.4,2c0,1,0,2.1,0,3.1c-0.1,0.8-0.2,1.6-0.4,2.4c-1,5.4-3.2,10.4-6.2,15
		c-5.8,9-13.5,15.9-23.5,20c-5.8,2.4-11.8,3.5-18,3.9c-1.5,0.1-2.9,0.2-4.4,0.3c-2.5,0-4.9,0-7.4,0c-1.4-0.2-2.8-0.4-4.2-0.6
		c-4-0.7-8-1.8-11.6-3.7c-1.3-0.7-2.5-1.5-3.1-2.9C10.6,81.8,10.6,81.5,10.6,81.1z"/>
</symbol>
<symbol id="pepper-banana-sweet" viewBox="0 26 100 48">
	<path class="st2" d="M10.6,81.1c0.6-0.9,1.5-1.2,2.4-1.2c3-0.1,6-0.2,9-0.3c5.1-0.2,10.1-0.7,15-2.4c4.8-1.7,9.3-3.9,13.5-6.9
		c7.2-5.1,11.5-12,13.7-20.5c0.7-2.6,1.2-5.3,1.9-7.9c0.9-3.8,4-6.2,7.8-6.6c2.3-0.2,4.3-1.2,6.2-2.6c0.3-0.2,0.6-0.6,0.7-1
		c1.8-4.7,2.4-9.5,0.6-14.3c-0.4-1.1-1.1-2.1-1.7-3.1c-0.3-0.5-0.8-0.9-1.3-1.2c-1.3-0.8-1.4-1.5-0.3-2.5c0.3,0,0.6,0,0.9,0
		c2,1,3.3,2.7,4.2,4.7c0.5,1.1,0.9,2.2,1.2,3.3c1,4.3,0.6,8.6-0.8,12.8c-0.1,0.4-0.3,0.8-0.2,1.1c0.6,2.5,1.9,4.7,3.6,6.5
		c1,1.1,1.8,2.3,2.1,3.8c0.2,0.7,0.3,1.3,0.4,2c0,1,0,2.1,0,3.1c-0.1,0.8-0.2,1.6-0.4,2.4c-1,5.4-3.2,10.4-6.2,15
		c-5.8,9-13.5,15.9-23.5,20c-5.8,2.4-11.8,3.5-18,3.9c-1.5,0.1-2.9,0.2-4.4,0.3c-2.5,0-4.9,0-7.4,0c-1.4-0.2-2.8-0.4-4.2-0.6
		c-4-0.7-8-1.8-11.6-3.7c-1.3-0.7-2.5-1.5-3.1-2.9C10.6,81.8,10.6,81.5,10.6,81.1z"/>
</symbol>
<symbol id="pepper-bell-yellow" viewBox="0 26 100 48">
	<g>
		<path class="st2" d="M64.2,37.7c0.3-3-0.9-5.6-2.4-8.2c1.1-0.3,2.2-0.7,3.3-0.8c4.8-0.7,9.2,1.8,11.2,6.2c1.4,3,1.9,6.1,2.1,9.4
			c0.3,4.9,0.4,9.9,0.1,14.9c-0.4,6.3-1,12.6-2.8,18.8c-0.8,2.6-2,5-3.7,7.1c-1.9,2.4-4.4,3.8-7.6,3.6c-0.7,0-1.4,0-2.2,0
			c0.7-2.5,1.8-4.9,1.4-7.6c-0.8,1.7-1.5,3.4-2.3,5c-1.4,2.8-3.5,4.8-6.5,5.8c-4.4,1.5-9.1,0-11.9-3.9c-1.5-2-2.6-4.3-3.9-6.5
			c-0.1-0.2-0.3-0.5-0.5-0.7c-0.3,2.7,1.1,4.9,1.8,7.3c-3.9,0.5-7.3-0.2-10-3.2c-2-2.3-3.1-5.1-3.8-8c-1.9-8-3.4-16.1-4.4-24.3
			c-0.3-2.3-0.7-4.7-0.9-7c-0.3-3-0.1-6,0.8-8.9c1.4-4.5,4.6-7,9.2-7.9c2.8-0.5,5.6-0.3,8.5,0.2c-1.7,2.7-3.2,5.3-3.4,8.6
			c0.1-0.2,0.2-0.4,0.4-0.6c1.3-1.9,2.3-4,3.8-5.8c5.9-6.8,17.3-5.4,21.5,2.6C62.9,34.9,63.5,36.3,64.2,37.7z"/>
		<path class="st2" d="M60.8,8.9c-0.5,1.6-0.9,3.1-1.3,4.7c-0.9-0.2-1.7-0.3-2.6-0.5c-2.6-0.4-4,0.4-4.9,2.9
			c-0.7,1.9-0.6,3.8,0.5,5.5c0.5,0.8,0.9,1.7,1.5,2.7c-2.9,0.2-5.7,0.3-8.6,0.5c0.2-0.3,0.3-0.6,0.5-0.8c1.4-1.8,2.1-3.9,1.8-6.2
			c-0.3-2.1,0.2-4.1,0.9-6c0.7-1.8,2-3.1,3.9-3.6C55.2,7.4,58,7.8,60.8,8.9z"/>
	</g>
</symbol>
<symbol id="broccoli" viewBox="0 26 100 48">
	<path class="st1" d="M59.8,62.8c-1.8,2.4-2.8,5.1-3.3,7.9c-0.5,2.9-0.8,5.8-1,8.7c-0.2,3.3-0.1,6.7,0,10c0,1-0.4,1.4-1.4,1.4
		c-4.5,0-9,0-13.5,0c-1.1,0-1.5-0.3-1.4-1.5c0.2-4,0.1-8,0.3-12c0.1-3.1-0.9-5.8-3.1-7.9c-2-1.8-4.2-3.4-6.4-5
		c-0.5-0.3-1.3-0.3-1.9-0.2C19,64.7,11.6,58.9,9.7,50.1c-1.5-7.2,2-14.8,8.5-18.5c0.8-0.5,1.2-0.9,1.1-1.9c-0.2-5,3.3-9,8.3-9.6
		c0.5-0.1,1-0.4,1.3-0.8C36.8,8.7,50.3,6.1,61.5,13c0.4,0.2,1.1,0.3,1.4,0.1c7.7-4,16.7,2.1,16.2,10.7c0,0.3,0.5,0.9,0.9,1
		c5.4,2.5,8.9,6.6,10.2,12.5c1.7,7.7-2,15.6-9.1,19.2c-0.9,0.4-1.4,1-1.8,1.9c-3.1,7.2-11.9,9.7-18.4,5.2
		C60.6,63.4,60.2,63.1,59.8,62.8z M46.6,71.8c0-0.5,0-0.8,0-1.1c-0.5-3.8-0.9-7.6-1.4-11.4c-0.3-2.3-0.3-2.3-2.5-2.8
		c-0.7-0.2-1.1,0-1.7,0.6c-1.2,1.3-2.5,2.6-3.8,3.8c-0.7,0.6-1.5,1-2.3,1.5C38.9,65.5,42.6,68.6,46.6,71.8z M51.9,65.7
		c1.5-2.1,3.1-4.2,4.6-6.4c0.1-0.2,0.3-0.5,0.2-0.8c-0.3-0.8-0.6-1.6-0.9-2.3c-1.7,0.3-3.3,0.6-4.9,1C51.2,60.2,51.6,63.1,51.9,65.7
		z"/>
</symbol>
<symbol id="cucumber-bush" viewBox="0 26 100 48">
	<path class="st1" d="M26.8,88.1C16.2,88.1,9,79.9,10.7,71c0.5-2.7,2-4.7,4.2-6.4c2-1.6,3.8-3.6,5.9-5.3c0.9-0.7,2.1-0.9,3-1.6
		c1.7-1.3,3.3-2.7,4.9-4.1c0.3-0.2,0.4-0.7,0.4-1c0.1-1.7,1.2-2.3,2.6-2.8c0.9-0.3,2-0.6,2.6-1.3C40.4,42.8,46.5,37,52,30.7
		c1.8-2.1,3.3-4.5,5.5-6.4c2.2-1.9,3.7-4.5,5.5-6.9c3.7-5.1,8.1-6.6,14.2-4.9c3.9,1.1,7.1,3.3,9.7,6.3c3,3.6,3,7.9,2,12.1
		c-0.7,3.1-1.8,6.2-3.3,9C80.5,49.5,74,58,66.8,66c-3.4,3.7-7.5,6.5-11.1,9.8c-0.9,0.8-1.6,1.9-2.6,2.8c-0.6,0.6-1.4,1.1-2.2,1.5
		c-1.3,0.6-2.7,0.8-3.9,1.5C40.4,85.2,33.5,87.9,26.8,88.1z M46.4,50.7c1-0.8,2.1-1.3,2.9-2.1c6.4-7.2,12.8-14.5,19.1-21.8
		c0.8-0.9,1-2-0.1-2.6c-0.6-0.3-1.9,0.1-2.4,0.6C59.4,32.7,53.3,41,45.4,47.6c-0.4,0.3-0.5,1.3-0.4,1.8
		C45.1,49.9,45.8,50.2,46.4,50.7z M42.4,64.5c0.5-0.3,1.2-0.6,1.7-1.1c4.4-4.1,8.7-8.2,13-12.3c0.9-0.8,1.7-1.9,0.5-3
		c-1.2-1.1-2.1-0.1-2.9,0.7c-4.3,4.1-8.7,8.2-13.1,12.3c-0.3,0.3-0.8,0.7-0.9,1.1C40.4,63.5,41,64.2,42.4,64.5z"/>
</symbol>
<symbol id="cucumber-traditional" viewBox="0 26 100 48">
	<path class="st1" d="M26.8,88.1C16.2,88.1,9,79.9,10.7,71c0.5-2.7,2-4.7,4.2-6.4c2-1.6,3.8-3.6,5.9-5.3c0.9-0.7,2.1-0.9,3-1.6
		c1.7-1.3,3.3-2.7,4.9-4.1c0.3-0.2,0.4-0.7,0.4-1c0.1-1.7,1.2-2.3,2.6-2.8c0.9-0.3,2-0.6,2.6-1.3C40.4,42.8,46.5,37,52,30.7
		c1.8-2.1,3.3-4.5,5.5-6.4c2.2-1.9,3.7-4.5,5.5-6.9c3.7-5.1,8.1-6.6,14.2-4.9c3.9,1.1,7.1,3.3,9.7,6.3c3,3.6,3,7.9,2,12.1
		c-0.7,3.1-1.8,6.2-3.3,9C80.5,49.5,74,58,66.8,66c-3.4,3.7-7.5,6.5-11.1,9.8c-0.9,0.8-1.6,1.9-2.6,2.8c-0.6,0.6-1.4,1.1-2.2,1.5
		c-1.3,0.6-2.7,0.8-3.9,1.5C40.4,85.2,33.5,87.9,26.8,88.1z M46.4,50.7c1-0.8,2.1-1.3,2.9-2.1c6.4-7.2,12.8-14.5,19.1-21.8
		c0.8-0.9,1-2-0.1-2.6c-0.6-0.3-1.9,0.1-2.4,0.6C59.4,32.7,53.3,41,45.4,47.6c-0.4,0.3-0.5,1.3-0.4,1.8
		C45.1,49.9,45.8,50.2,46.4,50.7z M42.4,64.5c0.5-0.3,1.2-0.6,1.7-1.1c4.4-4.1,8.7-8.2,13-12.3c0.9-0.8,1.7-1.9,0.5-3
		c-1.2-1.1-2.1-0.1-2.9,0.7c-4.3,4.1-8.7,8.2-13.1,12.3c-0.3,0.3-0.8,0.7-0.9,1.1C40.4,63.5,41,64.2,42.4,64.5z"/>
</symbol>
<symbol id="eggplant" viewBox="0 26 100 48">
	<g>
		<path class="st3" d="M66.7,29.7c-0.5,3.5-0.9,6.7-1.4,10.5c3.9-0.6,7.5-1.1,11.1-1.7c1.5,2.1,3.2,4.3,4.7,6.6
			c0.4,0.6,0.3,1.6,0.1,2.3c-2.9,7.8-7.3,14.8-12.7,21c-8,9.3-17.4,16.6-29.3,20.3c-5.3,1.6-10.7,2.6-16.2,1.4
			c-9.1-2.1-14.7-11-13.6-20.6c0.9-7.3,4.6-12.2,11.3-14.9c5.1-2.1,10.2-4,15.3-6.1c6.2-2.6,11.1-6.9,15.6-11.7c1.9-2,3.7-4,5.6-6
			c0.4-0.4,1-0.9,1.6-1C61.4,29.7,64.1,29.7,66.7,29.7z"/>
		<path class="st3" d="M79.4,31.8c-3,1.3-5.8,2.5-8.6,3.7c-0.2-0.2-0.5-0.4-0.7-0.6c1-3.2,2-6.5,3.1-9.9c-3.3,0.2-6.9,0.4-11,0.6
			c2.5-3.3,5.2-5.2,8.7-5.6c1.9-0.2,3.9,0.1,5.9-0.1c1-0.1,2.3-0.4,2.9-1.1c3-3.1,5.8-6.3,8.8-9.6c0.6,0.4,1.5,0.9,2.4,1.4
			c-1.3,4.4-3.5,8.2-6.3,11.7c-0.8,1-1,1.8-0.4,3c2.3,5.1,1.5,10.1-0.8,15.2C81.1,37.9,79.4,35.2,79.4,31.8z"/>
	</g>
</symbol>
<symbol id="kale" viewBox="0 26 100 48">
	<path class="st1" d="M50.3,28c0.5-1.6,0.8-3.1,1.3-4.5c1.1-3.3,2.5-6.4,5-8.9c5.2-5.2,12.9-3.8,15.8,3c1.8,4.1,2,8.4,1.4,12.8
		c-0.2,1.6-0.3,2.7,1.6,3.6c2.5,1.2,3.1,3.8,3.2,6.4c0,3.5-1.2,6.6-3.6,9.2c-0.2,0.2-0.4,0.5-0.7,0.8c0.3,0.2,0.5,0.4,0.8,0.5
		c3.1,1.4,4.7,3.8,4.5,7.3c-0.2,4.5-2.2,8.2-5.1,11.5c-4,4.6-9,7.7-14.4,10.1c-9.2,4.2-19,6.5-29,7.8c-3,0.4-6.1,0.7-9.1,1
		c-0.5,0.1-0.9,0-1.5,0.1c0.2-0.2,0.2-0.4,0.3-0.4c6.3-5,8.5-11.9,8.3-19.7c-0.1-4.3-0.9-8.4-2-12.5c-0.9-3.1-1.2-6.2-0.4-9.4
		c1.3-4.7,5.1-7,9.9-5.8c0.4,0.1,0.8,0.2,1.2,0.3c0.2-1.8,0.2-3.5,0.5-5.2c0.2-1.4,0.6-2.8,1.2-4c1.7-3.8,5-5.4,9.1-4.5
		C49.1,27.6,49.7,27.8,50.3,28z"/>
</symbol>
<symbol id="lettuce-romaine" viewBox="0 26 100 48">
	<path class="st1" d="M50.3,28c0.5-1.6,0.8-3.1,1.3-4.5c1.1-3.3,2.5-6.4,5-8.9c5.2-5.2,12.9-3.8,15.8,3c1.8,4.1,2,8.4,1.4,12.8
		c-0.2,1.6-0.3,2.7,1.6,3.6c2.5,1.2,3.1,3.8,3.2,6.4c0,3.5-1.2,6.6-3.6,9.2c-0.2,0.2-0.4,0.5-0.7,0.8c0.3,0.2,0.5,0.4,0.8,0.5
		c3.1,1.4,4.7,3.8,4.5,7.3c-0.2,4.5-2.2,8.2-5.1,11.5c-4,4.6-9,7.7-14.4,10.1c-9.2,4.2-19,6.5-29,7.8c-3,0.4-6.1,0.7-9.1,1
		c-0.5,0.1-0.9,0-1.5,0.1c0.2-0.2,0.2-0.4,0.3-0.4c6.3-5,8.5-11.9,8.3-19.7c-0.1-4.3-0.9-8.4-2-12.5c-0.9-3.1-1.2-6.2-0.4-9.4
		c1.3-4.7,5.1-7,9.9-5.8c0.4,0.1,0.8,0.2,1.2,0.3c0.2-1.8,0.2-3.5,0.5-5.2c0.2-1.4,0.6-2.8,1.2-4c1.7-3.8,5-5.4,9.1-4.5
		C49.1,27.6,49.7,27.8,50.3,28z"/>
</symbol>
<symbol id="strawberry" viewBox="0 26 100 48">
	<g>
		<path class="st0" d="M11.3,70.2c0.4-6.8,1.8-13.4,3.9-19.9c1.8-5.3,4.1-10.3,7.3-14.9c2.5-3.6,5.5-6.8,9.6-8.7
			c3.9-1.9,7.8-1.8,11.7-0.2c3.6,1.5,6.8,3.8,9.7,6.4c5.8,5.2,11.3,10.5,16,16.7c2.1,2.7,3.7,5.7,4.5,9c1,4.4-0.2,8.3-2.8,11.9
			c-2.9,4-6.6,7-10.8,9.5c-7.6,4.6-15.9,7.4-24.8,8.4c-4.7,0.5-9.5,0.6-14.1-0.7c-5.4-1.4-8.5-4.8-9.4-10.3
			C11.7,75,11.5,72.6,11.3,70.2z M66.8,59.9c-0.2-0.3-0.4-1.1-0.9-1.3c-0.4-0.2-1.3,0-1.7,0.3c-1.6,1.1-2.4,2.7-2.5,4.6
			c0,0.7,0.1,1.4,0.8,1.6c0.5,0.1,1.2,0.1,1.7-0.2C65.7,63.8,66.5,62.2,66.8,59.9z M31.6,81.3c1.7-0.2,3.3-1.1,4.4-2.9
			c0.8-1.3,0.1-2.4-1.4-2.3c-2,0.1-3.6,1.1-4.6,2.8C29.1,80.3,29.7,81.3,31.6,81.3z M28.7,55.5c0-1-0.6-1.5-1.5-1.4
			c-1.9,0.1-4.4,2.6-4.5,4.5c-0.1,0.9,0.5,1.6,1.4,1.5C26.1,60,28.7,57.4,28.7,55.5z M48.3,74.1c1.9-0.2,3.6-1.1,4.6-3.1
			c0.6-1.2,0-2.1-1.3-2.2c-1.8-0.1-4.2,1.3-5,2.9C46,73.1,46.6,74.1,48.3,74.1z M50.6,43.1c1.8,0,4.2-2,4.6-3.9
			c0.3-1.3-0.4-2-1.7-1.9c-1.8,0.2-4.1,2.3-4.4,4.1C48.9,42.5,49.5,43.1,50.6,43.1z M30.9,43.3c0-1.1-0.7-1.7-1.8-1.5
			c-1.9,0.4-3.9,2.9-3.9,4.8c0,1.1,0.7,1.7,1.8,1.4C28.9,47.7,31,45.2,30.9,43.3z M50.6,57.7c2,0,4.6-2.7,4.6-4.6
			c0-0.9-0.5-1.4-1.4-1.4c-1.9,0-4.6,2.6-4.6,4.6C49.1,57.1,49.6,57.7,50.6,57.7z M40.7,62.7c0-0.9-0.5-1.5-1.4-1.4
			c-1.9,0-4.5,2.6-4.6,4.6c0,0.9,0.5,1.5,1.4,1.5C38.1,67.3,40.7,64.7,40.7,62.7z M38.2,35.6c2.2-0.3,3.8-1,4.9-2.6
			c0.3-0.5,0.4-1.3,0.2-1.7c-0.2-0.4-1-0.7-1.5-0.7c-2,0-3.5,0.9-4.7,2.5c-0.4,0.5-0.7,1.2-0.2,1.8C37.3,35.2,37.9,35.4,38.2,35.6z
			 M43.1,45.9c0-0.9-0.5-1.5-1.4-1.5c-2,0-4.6,2.7-4.6,4.6c0,0.9,0.5,1.4,1.4,1.4C40.5,50.4,43.1,47.8,43.1,45.9z M18.3,73.4
			c0.2,0.3,0.4,1,0.8,1.3c0.5,0.2,1.3,0.1,1.7-0.2c1.6-1,2.4-2.6,2.6-4.5c0.1-0.7-0.1-1.5-0.8-1.7c-0.5-0.2-1.3-0.1-1.8,0.2
			C19.3,69.6,18.5,71.2,18.3,73.4z"/>
		<path class="st0" d="M74.8,14.5c3.7,3.3,3.5,17.5-3.3,22.6c0.9,1.3,2,2.2,3.4,2.9c3.3,1.6,6.7,1.8,10.3,1.4
			c1.1-0.1,2.3-0.3,3.5-0.5c-1.1,1.5-2.4,2.7-3.9,3.7c-4.1,2.6-8.2,2.3-12.3,0c-5.8-3.2-10.5-7.8-14-13.5c-1.7-2.7-2-5.6-1.3-8.7
			c0.6-2.4,1.4-4.8,1.1-7.3c-0.1-1.3-0.5-2.5-0.7-3.7c3.6,2.1,5.6,5.3,5.3,9.2c-0.1,1.7-0.4,3.5-0.5,5.2c-0.2,1.9-0.1,3.8,0.9,5.5
			c0.2,0.4,0.5,0.6,1,0.5c1.5-0.1,2.8-0.8,3.8-1.8c2.6-2.5,4.2-5.7,5.2-9.1C74,18.8,74.3,16.6,74.8,14.5z"/>
	</g>
</symbol>
<symbol id="zucchini" viewBox="0 26 100 48">
	<path class="st1" d="M26.8,88.1C16.2,88.1,9,79.9,10.7,71c0.5-2.7,2-4.7,4.2-6.4c2-1.6,3.8-3.6,5.9-5.3c0.9-0.7,2.1-0.9,3-1.6
		c1.7-1.3,3.3-2.7,4.9-4.1c0.3-0.2,0.4-0.7,0.4-1c0.1-1.7,1.2-2.3,2.6-2.8c0.9-0.3,2-0.6,2.6-1.3C40.4,42.8,46.5,37,52,30.7
		c1.8-2.1,3.3-4.5,5.5-6.4c2.2-1.9,3.7-4.5,5.5-6.9c3.7-5.1,8.1-6.6,14.2-4.9c3.9,1.1,7.1,3.3,9.7,6.3c3,3.6,3,7.9,2,12.1
		c-0.7,3.1-1.8,6.2-3.3,9C80.5,49.5,74,58,66.8,66c-3.4,3.7-7.5,6.5-11.1,9.8c-0.9,0.8-1.6,1.9-2.6,2.8c-0.6,0.6-1.4,1.1-2.2,1.5
		c-1.3,0.6-2.7,0.8-3.9,1.5C40.4,85.2,33.5,87.9,26.8,88.1z M46.4,50.7c1-0.8,2.1-1.3,2.9-2.1c6.4-7.2,12.8-14.5,19.1-21.8
		c0.8-0.9,1-2-0.1-2.6c-0.6-0.3-1.9,0.1-2.4,0.6C59.4,32.7,53.3,41,45.4,47.6c-0.4,0.3-0.5,1.3-0.4,1.8
		C45.1,49.9,45.8,50.2,46.4,50.7z M42.4,64.5c0.5-0.3,1.2-0.6,1.7-1.1c4.4-4.1,8.7-8.2,13-12.3c0.9-0.8,1.7-1.9,0.5-3
		c-1.2-1.1-2.1-0.1-2.9,0.7c-4.3,4.1-8.7,8.2-13.1,12.3c-0.3,0.3-0.8,0.7-0.9,1.1C40.4,63.5,41,64.2,42.4,64.5z"/>
</symbol>
<symbol id="basil" viewBox="0 26 100 48">
	<path class="st1" d="M62.9,18.5c10.5-0.3,20,3,29.2,7.6c2.1,1.1,2,1.2,0.8,3.2c-4.2,6.8-8.3,13.6-12.5,20.4
		c-5.5,9.2-12.1,17.4-20.8,23.7c-5.5,4-11.5,6.9-18.4,7.8c-7.2,0.9-14-0.4-20.2-4.1c-1.4-0.8-2.8-1.6-4.3-2.1c-2.6-1-5-0.7-7.1,1.4
		c-0.4,0.4-1.2,0.8-1.4,0.7c-0.8-0.7-1.5-1.5-2-2.4c-0.1-0.1,0.7-0.9,1.2-1.3c1.4-1.1,2.8-2.2,3-4.1c0.2-2.1,0.5-4.3,0.3-6.4
		c-1.2-13.9,4.1-24.7,15-33c9-6.8,19.4-10.1,30.5-11.2C58.5,18.7,60.7,18.7,62.9,18.5z"/>
</symbol>
<symbol id="chives" viewBox="0 26 100 48">
	<path class="st1" d="M90.3,9.7l-4.1-2.9c-0.3,0.5-0.7,0.9-1,1.3l-0.9-0.9c0.8-0.9,1.5-1.7,2.3-2.6l-3.7-3.3c-2.4,2.7-4.7,5.4-7,8.1
		l-3.9-2.8c-0.3,0.4-0.6,0.8-0.8,1.2l-3.3-1.2c0.2-0.5,0.3-1,0.5-1.5l-4.7-1.6C60,14.2,56,23.7,51.8,32.1c-2.1,0.3-3.2,1.5-3.6,2.3
		c-1.3,2.3-1,4.1-0.5,5.2c0,0.1,0.1,0.1,0.1,0.2c-0.4,0.7-0.8,1.5-1.2,2.2c-7,6.6-22.9,20.4-31.5,22.3l1.1,4.9
		c2.5-0.6,5.5-1.9,8.5-3.6c-9.6,10.5-14.9,16.8-15,17l3.2,2.6c-1.6,1.8-2.5,2.8-2.6,2.9l3.7,3.4c0,0,0.7-0.7,1.8-2l2.5,3
		c0.1-0.1,1.4-1.2,3.6-3.2c-1.6,3.1-2.5,4.8-2.5,4.9l4.5,2.2c0-0.1,0.4-0.8,1-2l3.7,1.8c0,0,0.3-0.6,0.8-1.7l3.7,0.8
		c0-0.2,1.4-6.6,5.4-17.3c1.3-2.3,2.8-4.8,4.3-7.4c-5.8,12.9-7.9,22.3-8.1,23.1l1.5,0.3c-0.5,1.5-0.7,2.4-0.8,2.4l4.8,1.4
		c0.1-0.4,7.5-24.6,20.6-49.1c0.6-0.9,1.2-1.7,1.8-2.6c0.5,0.1,0.9,0.1,1.3,0.1c1.8,0,3.2-0.5,4.2-1.6c0.8-1,1-2.3,0.4-3.7
		c-0.2-0.4-0.5-0.8-0.8-1.3c1.5-1.9,3.1-3.8,4.7-5.8c5.1-5.8,11-11.4,17.6-16.5L87.3,14C88.3,12.6,89.3,11.2,90.3,9.7z"/>
</symbol>
<symbol id="cilantro" viewBox="0 26 100 48">
	<g>
		<g>
			<path class="st1" d="M74.1,16.8c-0.7-0.1-1.4,0.2-2,0.5c0.6-0.4,0.3-1.7-0.4-2c-0.7-0.2-1.4,0.2-1.9,0.8
				c-0.5,0.6-0.9,1.3-1.6,1.6c0.2-0.8-0.6-1.8-1.3-1.7c-0.7,0-1.3,0.7-1.7,1.3c-1.3,1.8-2.3,4-3.1,6.1c0.4-1.4,0.3-3-0.2-4.4
				c-0.4,0.1-0.8,0.2-1.2,0.3c0-0.8-0.1-1.7-0.5-2.4c-0.4-0.7-1.2-1.3-1.7-0.9c-0.2,0.2-0.4,0.5-0.5,0.8c-0.9,1.9-1.7,3.9-2.3,5.8
				c-0.4-0.6-1.3-0.2-1.4,0.5c-0.2,0.7,0,1.5,0.1,2.2c0.1,0.7,0.1,1.6-0.4,2c0.2-1.1-1.2-2-2-1.6c-0.9,0.4-1,1.9-1.5,2.5
				c0-1.2,0.7-3.7,0.4-4c-0.2-0.3-0.9,0-1.4,0c0.2-1.2,0.8-3.3,0.6-3.7c-0.2-0.4-0.9-0.2-1.2,0.1c-0.4-1.7-1.1-3.3-2.1-4.9
				c-0.2-0.3-0.4-0.7-0.7-0.8c-0.5-0.2-0.9,0.2-1.1,0.6c-1,1.8-1.7,3.8-2.1,5.8c-0.5-0.7-1.2-1.2-1.9-1.7c-0.2,1.6,1.8,9.8,1.8,10.6
				c-0.4-2.1-2.2-4-4.3-4.7c-1.2,1.8-1,4.6,0.6,6.5c-0.3,0-0.7,0.1-1,0.1c1.5,2,2.8,4,4,5.9c-1.1,0.4-2.2,1.1-3.2,1.8
				c0.5-0.7,0.9-1.5,0.7-2.4c-0.2-0.9-1.5-1.6-2.1-0.9c0.7-1.2-0.2-3.1-1.7-3.5c-1.5-0.4-3,1-2.7,2.4c-0.5-1.8-1.1-3.6-1.8-5.4
				c-0.3-0.8-0.7-1.7-1.5-2.2c-0.8-0.5-2.1-0.1-1.9,0.7c-1-1.1-2.6-2.4-3.8-1.8c-0.4,0.2-0.6,0.5-0.8,0.8c-2.2,3.2-2.1,7.7,0.4,10.7
				c-1.4-0.5-3.2-0.3-4.2,0.7c-1.7,1.5-0.3,4.2,1.1,5.2c-0.5-0.4-1.5,0-1.7,0.6c-0.2,0.6,0.2,1.2,0.7,1.5c0.5,0.3,1.2,0.5,1.9,0.7
				c1.4,0.4,2.7,1,3.8,1.8c0.4,0.3,0.8,1,0.2,1.3c-0.1,0.1-0.3,0.1-0.4,0.1c-1-0.1-1.7-0.6-2.5-1.1c-0.8-0.5-1.8-0.9-2.9-0.5
				c-1,0.4-1.6,1.8-0.6,2.1c-1.8-1.2-4.9,0-7.4,1.4c-0.9,0.5-1.9,1.3-1.8,2c0.1,0.4,0.4,0.6,0.8,0.7c1.5,0.8,3,1.6,4.5,2.4
				c-1.2,0.2-1.6,1.9-0.7,2.5c0.8,0.5,2.1,0.3,3.3,0.1c-1.1,0.5-1.8,1.9-1.5,2.8c0.3,1,1.3,1.5,2.4,1.6c1.1,0.1,2.2-0.2,3.3-0.6
				c1.9-1.1,16.7-4.3,14.1,1.2c-0.5,1.1-1.2,2.3-1.8,3.4c-2,3.5-4.8,6.7-6.7,10.8c-0.2,0.3-0.2,0.7-0.4,1.1c0.1,0,1.1,0.9,1.2,0.6"
				/>
		</g>
		<g>
			<path class="st1" d="M74.1,16.8c0.3,0.7,0.4,1.6,0.4,2.4c0.1-0.8,1.2-1,1.6-0.3c0.4,0.6,0.3,1.5,0.1,2.3
				c-0.2,0.8-0.6,1.5-0.6,2.3c0.5-0.6,1.4-0.2,1.7,0.6c0.2,0.7-0.1,1.6-0.4,2.3c-0.9,2.1-2.1,4.1-3.6,5.8c0.9-1,2.2-1.6,3.4-1.8
				c0.1,0.4,0.1,0.8,0.2,1.3c0.6-0.4,1.3-0.7,1.9-0.7c0.7,0,1.3,0.4,1.2,1.1c0,0.3-0.2,0.6-0.4,0.9c-1.1,1.9-2.3,3.6-3.7,5.2
				c0.6,0.1,0.5,1.1,0,1.6c-0.5,0.5-1.2,0.7-1.9,1c-0.6,0.2-1.3,0.6-1.6,1.3c0.9-0.6,2,0.2,1.9,1.2c-0.1,1-1.4,1.9-1.8,2.6
				c1.1-0.5,3.2-2.4,3.5-2.4c0.3,0.1,0.3,0.9,0.4,1.3c1-0.8,2.6-2.6,3-2.6c0.4,0,0.5,0.7,0.3,1.1c1.5-0.6,3.1-1,4.8-1.3
				c0.3-0.1,0.7-0.1,1,0.1c0.4,0.3,0.2,0.9,0,1.4c-1,2.1-2.5,4.1-4.3,5.7c0.8,0,1.6,0.2,2.2,0.5c-1.3,1.5-10.1,4.3-10.9,4.4
				c2.2-0.5,4.7,0.1,6,1.6c-1.5,2.2-4.6,3.3-7,2.6c0,0.3,0.1,0.7,0.1,1c-2.5-0.5-4.9-1.1-7.1-1.8c-0.3,1.2-0.7,2.4-1.4,3.4
				c0.7-0.6,1.5-1.2,2.4-1.3c1,0,2,0.9,1.4,1.7c1.1-1,3.4-0.8,4.2,0.4c0.8,1.2-0.3,3.1-2,3.3c2.1-0.1,4.3-0.3,6.5-0.6
				c1-0.1,2.1-0.2,2.9,0.2c0.8,0.4,0.8,1.7-0.2,2c1.6,0.3,3.6,1,3.4,2.3c-0.1,0.4-0.3,0.8-0.6,1.1c-2.9,3.4-7.9,4.9-12.2,3.8
				c1,1,1.6,2.4,1.1,3.6c-0.8,1.8-4.1,1.5-5.8,0.7c0.6,0.3,0.7,1.2,0.2,1.6c-0.5,0.3-1.2,0.2-1.8-0.1c-0.6-0.4-1.1-0.9-1.5-1.4
				c-1.1-1.1-2.3-2.1-3.6-2.9c-0.5-0.3-1.4-0.5-1.4,0.1c0,0.1,0.1,0.3,0.1,0.4c0.5,0.9,1.4,1.4,2.3,2c0.8,0.6,1.7,1.4,1.9,2.3
				c0.2,1-0.9,1.8-1.7,1.1c2.1,1.2,2.8,4.1,3.2,6.5c0.2,0.9,0.2,2-0.5,2.1c-0.4,0.1-0.8-0.1-1.2-0.3c-1.8-0.9-3.5-1.8-5.2-2.9
				c0.6,1.1-0.6,2.1-1.7,1.6c-1.1-0.6-1.7-1.9-2.3-3c0.3,1.2-0.5,2.4-1.5,2.4c-1.1,0.1-2.2-0.8-3-1.9c-0.8-1.1-1.2-2.4-1.4-3.6
				c-1-2.3-2.6-18.6-6.5-14.8c-0.9,0.8-1.7,1.7-2.6,2.7c-2.5,3-4.1,7.1-6.5,10.8c-0.2,0.3-0.5,0.6-0.7,0.8c-0.1,0-1.1-0.9-1-1.1"/>
		</g>
	</g>
</symbol>
<symbol id="parsley-curled" viewBox="0 26 100 48">
	<g>
		<g>
			<path class="st1" d="M74.1,16.8c-0.7-0.1-1.4,0.2-2,0.5c0.6-0.4,0.3-1.7-0.4-2c-0.7-0.2-1.4,0.2-1.9,0.8
				c-0.5,0.6-0.9,1.3-1.6,1.6c0.2-0.8-0.6-1.8-1.3-1.7c-0.7,0-1.3,0.7-1.7,1.3c-1.3,1.8-2.3,4-3.1,6.1c0.4-1.4,0.3-3-0.2-4.4
				c-0.4,0.1-0.8,0.2-1.2,0.3c0-0.8-0.1-1.7-0.5-2.4c-0.4-0.7-1.2-1.3-1.7-0.9c-0.2,0.2-0.4,0.5-0.5,0.8c-0.9,1.9-1.7,3.9-2.3,5.8
				c-0.4-0.6-1.3-0.2-1.4,0.5c-0.2,0.7,0,1.5,0.1,2.2c0.1,0.7,0.1,1.6-0.4,2c0.2-1.1-1.2-2-2-1.6c-0.9,0.4-1,1.9-1.5,2.5
				c0-1.2,0.7-3.7,0.4-4c-0.2-0.3-0.9,0-1.4,0c0.2-1.2,0.8-3.3,0.6-3.7c-0.2-0.4-0.9-0.2-1.2,0.1c-0.4-1.7-1.1-3.3-2.1-4.9
				c-0.2-0.3-0.4-0.7-0.7-0.8c-0.5-0.2-0.9,0.2-1.1,0.6c-1,1.8-1.7,3.8-2.1,5.8c-0.5-0.7-1.2-1.2-1.9-1.7c-0.2,1.6,1.8,9.8,1.8,10.6
				c-0.4-2.1-2.2-4-4.3-4.7c-1.2,1.8-1,4.6,0.6,6.5c-0.3,0-0.7,0.1-1,0.1c1.5,2,2.8,4,4,5.9c-1.1,0.4-2.2,1.1-3.2,1.8
				c0.5-0.7,0.9-1.5,0.7-2.4c-0.2-0.9-1.5-1.6-2.1-0.9c0.7-1.2-0.2-3.1-1.7-3.5c-1.5-0.4-3,1-2.7,2.4c-0.5-1.8-1.1-3.6-1.8-5.4
				c-0.3-0.8-0.7-1.7-1.5-2.2c-0.8-0.5-2.1-0.1-1.9,0.7c-1-1.1-2.6-2.4-3.8-1.8c-0.4,0.2-0.6,0.5-0.8,0.8c-2.2,3.2-2.1,7.7,0.4,10.7
				c-1.4-0.5-3.2-0.3-4.2,0.7c-1.7,1.5-0.3,4.2,1.1,5.2c-0.5-0.4-1.5,0-1.7,0.6c-0.2,0.6,0.2,1.2,0.7,1.5c0.5,0.3,1.2,0.5,1.9,0.7
				c1.4,0.4,2.7,1,3.8,1.8c0.4,0.3,0.8,1,0.2,1.3c-0.1,0.1-0.3,0.1-0.4,0.1c-1-0.1-1.7-0.6-2.5-1.1c-0.8-0.5-1.8-0.9-2.9-0.5
				c-1,0.4-1.6,1.8-0.6,2.1c-1.8-1.2-4.9,0-7.4,1.4c-0.9,0.5-1.9,1.3-1.8,2c0.1,0.4,0.4,0.6,0.8,0.7c1.5,0.8,3,1.6,4.5,2.4
				c-1.2,0.2-1.6,1.9-0.7,2.5c0.8,0.5,2.1,0.3,3.3,0.1c-1.1,0.5-1.8,1.9-1.5,2.8c0.3,1,1.3,1.5,2.4,1.6c1.1,0.1,2.2-0.2,3.3-0.6
				c1.9-1.1,16.7-4.3,14.1,1.2c-0.5,1.1-1.2,2.3-1.8,3.4c-2,3.5-4.8,6.7-6.7,10.8c-0.2,0.3-0.2,0.7-0.4,1.1c0.1,0,1.1,0.9,1.2,0.6"
				/>
		</g>
		<g>
			<path class="st1" d="M74.1,16.8c0.3,0.7,0.4,1.6,0.4,2.4c0.1-0.8,1.2-1,1.6-0.3c0.4,0.6,0.3,1.5,0.1,2.3
				c-0.2,0.8-0.6,1.5-0.6,2.3c0.5-0.6,1.4-0.2,1.7,0.6c0.2,0.7-0.1,1.6-0.4,2.3c-0.9,2.1-2.1,4.1-3.6,5.8c0.9-1,2.2-1.6,3.4-1.8
				c0.1,0.4,0.1,0.8,0.2,1.3c0.6-0.4,1.3-0.7,1.9-0.7c0.7,0,1.3,0.4,1.2,1.1c0,0.3-0.2,0.6-0.4,0.9c-1.1,1.9-2.3,3.6-3.7,5.2
				c0.6,0.1,0.5,1.1,0,1.6c-0.5,0.5-1.2,0.7-1.9,1c-0.6,0.2-1.3,0.6-1.6,1.3c0.9-0.6,2,0.2,1.9,1.2c-0.1,1-1.4,1.9-1.8,2.6
				c1.1-0.5,3.2-2.4,3.5-2.4c0.3,0.1,0.3,0.9,0.4,1.3c1-0.8,2.6-2.6,3-2.6c0.4,0,0.5,0.7,0.3,1.1c1.5-0.6,3.1-1,4.8-1.3
				c0.3-0.1,0.7-0.1,1,0.1c0.4,0.3,0.2,0.9,0,1.4c-1,2.1-2.5,4.1-4.3,5.7c0.8,0,1.6,0.2,2.2,0.5c-1.3,1.5-10.1,4.3-10.9,4.4
				c2.2-0.5,4.7,0.1,6,1.6c-1.5,2.2-4.6,3.3-7,2.6c0,0.3,0.1,0.7,0.1,1c-2.5-0.5-4.9-1.1-7.1-1.8c-0.3,1.2-0.7,2.4-1.4,3.4
				c0.7-0.6,1.5-1.2,2.4-1.3c1,0,2,0.9,1.4,1.7c1.1-1,3.4-0.8,4.2,0.4c0.8,1.2-0.3,3.1-2,3.3c2.1-0.1,4.3-0.3,6.5-0.6
				c1-0.1,2.1-0.2,2.9,0.2c0.8,0.4,0.8,1.7-0.2,2c1.6,0.3,3.6,1,3.4,2.3c-0.1,0.4-0.3,0.8-0.6,1.1c-2.9,3.4-7.9,4.9-12.2,3.8
				c1,1,1.6,2.4,1.1,3.6c-0.8,1.8-4.1,1.5-5.8,0.7c0.6,0.3,0.7,1.2,0.2,1.6c-0.5,0.3-1.2,0.2-1.8-0.1c-0.6-0.4-1.1-0.9-1.5-1.4
				c-1.1-1.1-2.3-2.1-3.6-2.9c-0.5-0.3-1.4-0.5-1.4,0.1c0,0.1,0.1,0.3,0.1,0.4c0.5,0.9,1.4,1.4,2.3,2c0.8,0.6,1.7,1.4,1.9,2.3
				c0.2,1-0.9,1.8-1.7,1.1c2.1,1.2,2.8,4.1,3.2,6.5c0.2,0.9,0.2,2-0.5,2.1c-0.4,0.1-0.8-0.1-1.2-0.3c-1.8-0.9-3.5-1.8-5.2-2.9
				c0.6,1.1-0.6,2.1-1.7,1.6c-1.1-0.6-1.7-1.9-2.3-3c0.3,1.2-0.5,2.4-1.5,2.4c-1.1,0.1-2.2-0.8-3-1.9c-0.8-1.1-1.2-2.4-1.4-3.6
				c-1-2.3-2.6-18.6-6.5-14.8c-0.9,0.8-1.7,1.7-2.6,2.7c-2.5,3-4.1,7.1-6.5,10.8c-0.2,0.3-0.5,0.6-0.7,0.8c-0.1,0-1.1-0.9-1-1.1"/>
		</g>
	</g>
</symbol>
<symbol id="parsley-flat" viewBox="0 26 100 48">
	<g>
		<g>
			<path class="st1" d="M74.1,16.8c-0.7-0.1-1.4,0.2-2,0.5c0.6-0.4,0.3-1.7-0.4-2c-0.7-0.2-1.4,0.2-1.9,0.8
				c-0.5,0.6-0.9,1.3-1.6,1.6c0.2-0.8-0.6-1.8-1.3-1.7c-0.7,0-1.3,0.7-1.7,1.3c-1.3,1.8-2.3,4-3.1,6.1c0.4-1.4,0.3-3-0.2-4.4
				c-0.4,0.1-0.8,0.2-1.2,0.3c0-0.8-0.1-1.7-0.5-2.4c-0.4-0.7-1.2-1.3-1.7-0.9c-0.2,0.2-0.4,0.5-0.5,0.8c-0.9,1.9-1.7,3.9-2.3,5.8
				c-0.4-0.6-1.3-0.2-1.4,0.5c-0.2,0.7,0,1.5,0.1,2.2c0.1,0.7,0.1,1.6-0.4,2c0.2-1.1-1.2-2-2-1.6c-0.9,0.4-1,1.9-1.5,2.5
				c0-1.2,0.7-3.7,0.4-4c-0.2-0.3-0.9,0-1.4,0c0.2-1.2,0.8-3.3,0.6-3.7c-0.2-0.4-0.9-0.2-1.2,0.1c-0.4-1.7-1.1-3.3-2.1-4.9
				c-0.2-0.3-0.4-0.7-0.7-0.8c-0.5-0.2-0.9,0.2-1.1,0.6c-1,1.8-1.7,3.8-2.1,5.8c-0.5-0.7-1.2-1.2-1.9-1.7c-0.2,1.6,1.8,9.8,1.8,10.6
				c-0.4-2.1-2.2-4-4.3-4.7c-1.2,1.8-1,4.6,0.6,6.5c-0.3,0-0.7,0.1-1,0.1c1.5,2,2.8,4,4,5.9c-1.1,0.4-2.2,1.1-3.2,1.8
				c0.5-0.7,0.9-1.5,0.7-2.4c-0.2-0.9-1.5-1.6-2.1-0.9c0.7-1.2-0.2-3.1-1.7-3.5c-1.5-0.4-3,1-2.7,2.4c-0.5-1.8-1.1-3.6-1.8-5.4
				c-0.3-0.8-0.7-1.7-1.5-2.2c-0.8-0.5-2.1-0.1-1.9,0.7c-1-1.1-2.6-2.4-3.8-1.8c-0.4,0.2-0.6,0.5-0.8,0.8c-2.2,3.2-2.1,7.7,0.4,10.7
				c-1.4-0.5-3.2-0.3-4.2,0.7c-1.7,1.5-0.3,4.2,1.1,5.2c-0.5-0.4-1.5,0-1.7,0.6c-0.2,0.6,0.2,1.2,0.7,1.5c0.5,0.3,1.2,0.5,1.9,0.7
				c1.4,0.4,2.7,1,3.8,1.8c0.4,0.3,0.8,1,0.2,1.3c-0.1,0.1-0.3,0.1-0.4,0.1c-1-0.1-1.7-0.6-2.5-1.1c-0.8-0.5-1.8-0.9-2.9-0.5
				c-1,0.4-1.6,1.8-0.6,2.1c-1.8-1.2-4.9,0-7.4,1.4c-0.9,0.5-1.9,1.3-1.8,2c0.1,0.4,0.4,0.6,0.8,0.7c1.5,0.8,3,1.6,4.5,2.4
				c-1.2,0.2-1.6,1.9-0.7,2.5c0.8,0.5,2.1,0.3,3.3,0.1c-1.1,0.5-1.8,1.9-1.5,2.8c0.3,1,1.3,1.5,2.4,1.6c1.1,0.1,2.2-0.2,3.3-0.6
				c1.9-1.1,16.7-4.3,14.1,1.2c-0.5,1.1-1.2,2.3-1.8,3.4c-2,3.5-4.8,6.7-6.7,10.8c-0.2,0.3-0.2,0.7-0.4,1.1c0.1,0,1.1,0.9,1.2,0.6"
				/>
		</g>
		<g>
			<path class="st1" d="M74.1,16.8c0.3,0.7,0.4,1.6,0.4,2.4c0.1-0.8,1.2-1,1.6-0.3c0.4,0.6,0.3,1.5,0.1,2.3
				c-0.2,0.8-0.6,1.5-0.6,2.3c0.5-0.6,1.4-0.2,1.7,0.6c0.2,0.7-0.1,1.6-0.4,2.3c-0.9,2.1-2.1,4.1-3.6,5.8c0.9-1,2.2-1.6,3.4-1.8
				c0.1,0.4,0.1,0.8,0.2,1.3c0.6-0.4,1.3-0.7,1.9-0.7c0.7,0,1.3,0.4,1.2,1.1c0,0.3-0.2,0.6-0.4,0.9c-1.1,1.9-2.3,3.6-3.7,5.2
				c0.6,0.1,0.5,1.1,0,1.6c-0.5,0.5-1.2,0.7-1.9,1c-0.6,0.2-1.3,0.6-1.6,1.3c0.9-0.6,2,0.2,1.9,1.2c-0.1,1-1.4,1.9-1.8,2.6
				c1.1-0.5,3.2-2.4,3.5-2.4c0.3,0.1,0.3,0.9,0.4,1.3c1-0.8,2.6-2.6,3-2.6c0.4,0,0.5,0.7,0.3,1.1c1.5-0.6,3.1-1,4.8-1.3
				c0.3-0.1,0.7-0.1,1,0.1c0.4,0.3,0.2,0.9,0,1.4c-1,2.1-2.5,4.1-4.3,5.7c0.8,0,1.6,0.2,2.2,0.5c-1.3,1.5-10.1,4.3-10.9,4.4
				c2.2-0.5,4.7,0.1,6,1.6c-1.5,2.2-4.6,3.3-7,2.6c0,0.3,0.1,0.7,0.1,1c-2.5-0.5-4.9-1.1-7.1-1.8c-0.3,1.2-0.7,2.4-1.4,3.4
				c0.7-0.6,1.5-1.2,2.4-1.3c1,0,2,0.9,1.4,1.7c1.1-1,3.4-0.8,4.2,0.4c0.8,1.2-0.3,3.1-2,3.3c2.1-0.1,4.3-0.3,6.5-0.6
				c1-0.1,2.1-0.2,2.9,0.2c0.8,0.4,0.8,1.7-0.2,2c1.6,0.3,3.6,1,3.4,2.3c-0.1,0.4-0.3,0.8-0.6,1.1c-2.9,3.4-7.9,4.9-12.2,3.8
				c1,1,1.6,2.4,1.1,3.6c-0.8,1.8-4.1,1.5-5.8,0.7c0.6,0.3,0.7,1.2,0.2,1.6c-0.5,0.3-1.2,0.2-1.8-0.1c-0.6-0.4-1.1-0.9-1.5-1.4
				c-1.1-1.1-2.3-2.1-3.6-2.9c-0.5-0.3-1.4-0.5-1.4,0.1c0,0.1,0.1,0.3,0.1,0.4c0.5,0.9,1.4,1.4,2.3,2c0.8,0.6,1.7,1.4,1.9,2.3
				c0.2,1-0.9,1.8-1.7,1.1c2.1,1.2,2.8,4.1,3.2,6.5c0.2,0.9,0.2,2-0.5,2.1c-0.4,0.1-0.8-0.1-1.2-0.3c-1.8-0.9-3.5-1.8-5.2-2.9
				c0.6,1.1-0.6,2.1-1.7,1.6c-1.1-0.6-1.7-1.9-2.3-3c0.3,1.2-0.5,2.4-1.5,2.4c-1.1,0.1-2.2-0.8-3-1.9c-0.8-1.1-1.2-2.4-1.4-3.6
				c-1-2.3-2.6-18.6-6.5-14.8c-0.9,0.8-1.7,1.7-2.6,2.7c-2.5,3-4.1,7.1-6.5,10.8c-0.2,0.3-0.5,0.6-0.7,0.8c-0.1,0-1.1-0.9-1-1.1"/>
		</g>
	</g>
</symbol>
<symbol id="rosemary" viewBox="0 26 100 48">
	<path class="st1" d="M19.4,89.9c-0.1-0.7-0.2-1.3-0.1-1.8c0.8-3.9,1.5-7.9,2.4-11.7c1-4.3,2.4-8.5,4.1-12.7
		c1.6-3.9,3.5-7.6,6.1-10.8c0.1-0.2,0.3-0.3,0.4-0.5c0.8-1.2,2.4-1.4,3.5,0c0.1-0.1,0.1-0.2,0.2-0.3c2-5.4,4.1-10.7,6.1-16.1
		c0.3-0.8,0.8-1.3,1.6-1.4c0.7-0.1,1.4,0.1,1.8,0.8c0.2,0.4,0.3,0.9,0.4,1.4c0,0.4-0.1,0.9,0,1.3c0.4-1.1,0.8-2.2,1.2-3.3
		c1.4-3.9,2.9-7.9,4.3-11.8c0.3-0.7,0.8-1.2,1.5-1.3c0.8-0.1,1.5,0.1,1.9,0.8c0.2,0.4,0.3,0.9,0.3,1.3c0,0.5-0.1,1-0.1,1.5
		c0.4-1.1,0.8-2.1,1.2-3.2c1.9-5.6,3.9-11.3,5.8-16.9c0.3-1,1.1-1.5,2-1.5c0.9,0,1.6,0.7,1.8,1.7c0.5,2.3,0.3,4.6-0.1,6.9
		c-1,5.9-3.1,11.5-5.4,17C60,29.6,59.9,29.8,60,30c0.8-1.3,1.7-2.5,2.5-3.8c4.1-6,8.3-11.9,13.2-17.3c1.5-1.6,3.1-3.1,4.6-4.6
		c0.8-0.7,1.7-0.8,2.5-0.2c0.8,0.6,1,1.5,0.6,2.5c-1.7,4-3.9,7.8-6.2,11.4c-3.7,5.8-7.8,11.2-12,16.6c-0.1,0.1-0.2,0.3-0.2,0.5
		c0.8-0.6,1.6-1.3,2.4-1.9c3.5-2.8,7.2-5.5,11.4-7.4c1.5-0.7,3-1.2,4.7-1.4c1.5-0.1,2.5,1.2,2,2.6c-0.1,0.4-0.4,0.7-0.7,0.9
		c-7.2,5.4-14.3,11.1-21.3,16.9c-0.5,0.4-1,0.8-1.5,1.3c0.2-0.1,0.3-0.2,0.5-0.3c2.1-1.1,4.3-2.2,6.4-3.2c0.5-0.3,1.1-0.3,1.7,0
		c1.3,0.6,1.6,2.4,0.4,3.3c-2,1.6-4.1,3.1-6.2,4.7c-0.9,0.7-1.7,1.4-2.7,2.1c0.1,0,0.2-0.1,0.4-0.1c0.8-0.4,1.6-0.8,2.5-1.2
		c1-0.5,2-0.2,2.5,0.7c0.5,0.9,0.3,1.9-0.5,2.6c-4.5,3.6-9,7.2-13.5,10.8c-4.7,3.7-9.5,7.4-14.3,11.1c-0.2,0.1-0.4,0.2-0.6,0.4
		c0,0.1,0.1,0.1,0.1,0.2c0.9-0.6,1.8-1.2,2.6-1.7c2.1-1.3,4.1-2.7,6.2-4c0.9-0.6,1.9-0.5,2.6,0.2c0.7,0.7,0.7,1.7,0,2.6
		c-1.9,2.8-4.3,5.1-6.9,7.2c-5.7,4.7-12.1,8.4-18.7,11.6c-2.4,1.2-4.8,2.2-7.2,3.3c-0.9,0.4-1.9,0.1-2.4-0.7
		c-0.5-0.8-0.4-1.8,0.3-2.4c0.1-0.1,0.3-0.2,0.4-0.3C16.9,91.7,18.2,90.7,19.4,89.9z"/>
</symbol>
<symbol id="sage" viewBox="0 26 100 48">
	<path class="st1" d="M62.9,18.5c10.5-0.3,20,3,29.2,7.6c2.1,1.1,2,1.2,0.8,3.2c-4.2,6.8-8.3,13.6-12.5,20.4
		c-5.5,9.2-12.1,17.4-20.8,23.7c-5.5,4-11.5,6.9-18.4,7.8c-7.2,0.9-14-0.4-20.2-4.1c-1.4-0.8-2.8-1.6-4.3-2.1c-2.6-1-5-0.7-7.1,1.4
		c-0.4,0.4-1.2,0.8-1.4,0.7c-0.8-0.7-1.5-1.5-2-2.4c-0.1-0.1,0.7-0.9,1.2-1.3c1.4-1.1,2.8-2.2,3-4.1c0.2-2.1,0.5-4.3,0.3-6.4
		c-1.2-13.9,4.1-24.7,15-33c9-6.8,19.4-10.1,30.5-11.2C58.5,18.7,60.7,18.7,62.9,18.5z"/>
</symbol>
<symbol id="mint-sweet" viewBox="0 26 100 48">
	<path class="st1" d="M62.9,18.5c10.5-0.3,20,3,29.2,7.6c2.1,1.1,2,1.2,0.8,3.2c-4.2,6.8-8.3,13.6-12.5,20.4
		c-5.5,9.2-12.1,17.4-20.8,23.7c-5.5,4-11.5,6.9-18.4,7.8c-7.2,0.9-14-0.4-20.2-4.1c-1.4-0.8-2.8-1.6-4.3-2.1c-2.6-1-5-0.7-7.1,1.4
		c-0.4,0.4-1.2,0.8-1.4,0.7c-0.8-0.7-1.5-1.5-2-2.4c-0.1-0.1,0.7-0.9,1.2-1.3c1.4-1.1,2.8-2.2,3-4.1c0.2-2.1,0.5-4.3,0.3-6.4
		c-1.2-13.9,4.1-24.7,15-33c9-6.8,19.4-10.1,30.5-11.2C58.5,18.7,60.7,18.7,62.9,18.5z"/>
</symbol>
<symbol id="organic" viewBox="0 26 100 48">
	<g>
		<defs>
			<rect id="SVGID_1_" width="100" height="100"/>
		</defs>
		<clipPath id="SVGID_2_">
			<use xlink:href="#SVGID_1_"  style="overflow:visible;"/>
		</clipPath>
		<path class="st4" d="M50,0C22.4,0,0,22.4,0,50s22.4,50,50,50s50-22.4,50-50S77.6,0,50,0"/>
		<path class="st5" d="M50,3.8C24.5,3.8,3.8,24.5,3.8,50c0,25.5,20.7,46.2,46.2,46.2S96.2,75.5,96.2,50C96.2,24.5,75.5,3.8,50,3.8
			 M50,11.5c10.3,0,19.9,4,27.2,11.3S88.5,39.7,88.5,50c0,10.3-4,19.9-11.3,27.2C69.9,84.5,60.3,88.5,50,88.5s-19.9-4-27.2-11.2
			C15.5,69.9,11.5,60.3,11.5,50c0-10.3,4-19.9,11.3-27.2S39.7,11.5,50,11.5"/>
		<path class="st6" d="M69.2,50v12.8H30.8V50H17.9c0,17.7,14.3,32.1,32,32.1S82,67.7,82,50H69.2z"/>
	</g>
	<rect x="30.8" y="37.2" class="st7" width="38.5" height="12.8"/>
</symbol>
</svg>
